<svg width="20" height="20" viewBox="0 0 20 20" fill="none" xmlns="http://www.w3.org/2000/svg">
<circle cx="10" cy="10" r="9.5" stroke="#CCCCCC"/>
<path fill-rule="evenodd" clip-rule="evenodd" d="M10.75 5.46875C10.75 5.05454 10.4142 4.71875 10 4.71875C9.58579 4.71875 9.25 5.05454 9.25 5.46875V9.08268H5.75C5.33579 9.08268 5 9.41847 5 9.83268C5 10.2469 5.33579 10.5827 5.75 10.5827H9.25V14.6354C9.25 15.0496 9.58579 15.3854 10 15.3854C10.4142 15.3854 10.75 15.0496 10.75 14.6354V10.5827H14.25C14.6642 10.5827 15 10.2469 15 9.83268C15 9.41847 14.6642 9.08268 14.25 9.08268H10.75V5.46875Z" fill="#CCCCCC"/>
</svg>
