<svg width="24" height="24" viewBox="0 0 24 24" fill="none" xmlns="http://www.w3.org/2000/svg">
<path d="M9.1875 11.625V10.5H10.3125V11.625H9.1875ZM13.6875 11.625V10.5H14.8125V11.625H13.6875ZM5.25 19.5V13.5H6V10.5C6 9.675 6.15625 8.89687 6.46875 8.16562C6.78125 7.43437 7.20938 6.79688 7.75313 6.25313C8.29688 5.70938 8.93437 5.28125 9.66562 4.96875C10.3969 4.65625 11.175 4.5 12 4.5C12.825 4.5 13.6031 4.65625 14.3344 4.96875C15.0656 5.28125 15.7031 5.70938 16.2469 6.25313C16.7906 6.79688 17.2188 7.43437 17.5312 8.16562C17.8438 8.89687 18 9.675 18 10.5V13.5H18.75V19.5H5.25ZM6.375 18.375H8.34375V14.625H6.375V18.375ZM9.46875 18.375H11.4375V14.625H9.46875V18.375ZM7.125 13.5H11.4375V5.6625C10.2 5.8125 9.17188 6.34375 8.35312 7.25625C7.53437 8.16875 7.125 9.25 7.125 10.5V13.5ZM12.5625 13.5H16.875V10.5C16.875 9.25 16.4656 8.16875 15.6469 7.25625C14.8281 6.34375 13.8 5.8125 12.5625 5.6625V13.5ZM12.5625 18.375H14.5312V14.625H12.5625V18.375ZM15.6562 18.375H17.625V14.625H15.6562V18.375Z" fill="#999999"/>
</svg>
