<svg width="60" height="60" viewBox="0 0 60 60" fill="none" xmlns="http://www.w3.org/2000/svg">
<circle cx="30" cy="30" r="29.9" stroke="black" stroke-width="0.2"/>
<path d="M43.75 38.0829V26.2109C43.7285 25.3523 43.335 24.5367 42.6561 23.9433C41.9771 23.3498 41.0682 23.0271 40.1291 23.046H39.532C39.18 23.0488 38.8348 22.9574 38.539 22.7831C38.2431 22.6088 38.0094 22.3592 37.8667 22.0651L36.5444 19.7312C36.401 19.4356 36.1658 19.185 35.868 19.0106C35.5702 18.8362 35.2229 18.7457 34.8693 18.7502H26.4152C26.0604 18.7452 25.7118 18.8354 25.4125 19.0098C25.1133 19.1842 24.8767 19.435 24.7319 19.7312L23.3833 22.0636C23.2387 22.36 23.0022 22.6111 22.7029 22.7858C22.4037 22.9604 22.055 23.0509 21.7 23.046H21.1209C20.1818 23.0271 19.2729 23.3498 18.5939 23.9433C17.915 24.5367 17.5215 25.3523 17.5 26.2109V38.0829C17.5211 38.9417 17.9144 39.7577 18.5934 40.3514C19.2724 40.9452 20.1815 41.2681 21.1209 41.2492H40.1291C41.0685 41.2681 41.9776 40.9452 42.6566 40.3514C43.3356 39.7577 43.7289 38.9417 43.75 38.0829V38.0829Z" stroke="#CCCCCC" stroke-linecap="round"/>
<path d="M35.9375 31.7188C35.9375 32.8004 35.6168 33.8577 35.0159 34.757C34.4149 35.6564 33.5608 36.3573 32.5616 36.7712C31.5623 37.1851 30.4627 37.2934 29.4019 37.0824C28.341 36.8714 27.3666 36.3506 26.6018 35.5857C25.8369 34.8209 25.3161 33.8465 25.1051 32.7857C24.8941 31.7248 25.0024 30.6252 25.4163 29.626C25.8302 28.6267 26.5311 27.7726 27.4305 27.1717C28.3298 26.5707 29.3871 26.25 30.4688 26.25C31.9192 26.25 33.3102 26.8262 34.3357 27.8518C35.3613 28.8773 35.9375 30.2683 35.9375 31.7188V31.7188Z" stroke="#CCCCCC" stroke-linecap="round"/>
</svg>
