<svg width="23" height="20" viewBox="0 0 23 20" fill="none" xmlns="http://www.w3.org/2000/svg">
<path d="M22 16.4663V6.9687C21.9828 6.28187 21.668 5.62938 21.1249 5.15462C20.5817 4.67986 19.8546 4.42168 19.1033 4.43681H18.6256C18.344 4.43902 18.0679 4.36591 17.8312 4.22648C17.5945 4.08704 17.4075 3.88737 17.2934 3.65204L16.2355 1.78493C16.1208 1.54846 15.9327 1.34802 15.6944 1.2085C15.4562 1.06898 15.1783 0.996533 14.8954 1.00016H8.13213C7.84829 0.996128 7.5694 1.06834 7.33003 1.20783C7.09066 1.34733 6.90132 1.54799 6.7855 1.78493L5.70663 3.65084C5.591 3.88801 5.40175 4.08891 5.16236 4.22863C4.92297 4.36835 4.64398 4.44074 4.36 4.43681H3.89669C3.14541 4.42168 2.41831 4.67986 1.87515 5.15462C1.33199 5.62938 1.01721 6.28187 1 6.9687V16.4663C1.01687 17.1533 1.33149 17.8061 1.87469 18.2811C2.41789 18.7562 3.14519 19.0145 3.89669 18.9994H19.1033C19.8548 19.0145 20.5821 18.7562 21.1253 18.2811C21.6685 17.8061 21.9831 17.1533 22 16.4663V16.4663Z" stroke="#11161C" stroke-width="2" stroke-linecap="round"/>
<path d="M15.75 11.375C15.75 12.2403 15.4934 13.0862 15.0127 13.8056C14.532 14.5251 13.8487 15.0858 13.0492 15.417C12.2498 15.7481 11.3701 15.8347 10.5215 15.6659C9.67281 15.4971 8.89326 15.0804 8.28141 14.4686C7.66956 13.8567 7.25288 13.0772 7.08407 12.2285C6.91526 11.3799 7.0019 10.5002 7.33303 9.70076C7.66416 8.90133 8.22492 8.21805 8.94438 7.73732C9.66385 7.25659 10.5097 7 11.375 7C12.5353 7 13.6481 7.46094 14.4686 8.28141C15.2891 9.10188 15.75 10.2147 15.75 11.375V11.375Z" stroke="#11161C" stroke-width="2" stroke-linecap="round"/>
</svg>
