<svg width="24" height="24" viewBox="0 0 24 24" fill="none" xmlns="http://www.w3.org/2000/svg">
<path d="M8.25 16.6875H10.5V13.5H11.25V11.4375C11.25 11.025 11.1031 10.6719 10.8094 10.3781C10.5156 10.0844 10.1625 9.9375 9.75 9.9375H9C8.5875 9.9375 8.23438 10.0844 7.94063 10.3781C7.64688 10.6719 7.5 11.025 7.5 11.4375V13.5H8.25V16.6875ZM9.375 9.3C9.6625 9.3 9.90938 9.19688 10.1156 8.99063C10.3219 8.78438 10.425 8.5375 10.425 8.25C10.425 7.9625 10.3219 7.71562 10.1156 7.50937C9.90938 7.30312 9.6625 7.2 9.375 7.2C9.0875 7.2 8.84062 7.30312 8.63437 7.50937C8.42812 7.71562 8.325 7.9625 8.325 8.25C8.325 8.5375 8.42812 8.78438 8.63437 8.99063C8.84062 9.19688 9.0875 9.3 9.375 9.3ZM12.6562 11.0625H16.4062L14.5312 8.0625L12.6562 11.0625ZM14.5312 15.9375L16.4062 12.9375H12.6562L14.5312 15.9375ZM6.375 18.75C6.075 18.75 5.8125 18.6375 5.5875 18.4125C5.3625 18.1875 5.25 17.925 5.25 17.625V6.375C5.25 6.0875 5.3625 5.82813 5.5875 5.59688C5.8125 5.36563 6.075 5.25 6.375 5.25H17.625C17.9125 5.25 18.1719 5.36563 18.4031 5.59688C18.6344 5.82813 18.75 6.0875 18.75 6.375V17.625C18.75 17.925 18.6344 18.1875 18.4031 18.4125C18.1719 18.6375 17.9125 18.75 17.625 18.75H6.375ZM6.375 17.625H17.625V6.375H6.375V17.625ZM6.375 17.625V6.375V17.625Z" fill="#999999"/>
</svg>
