<svg width="15" height="19" viewBox="0 0 15 19" fill="none" xmlns="http://www.w3.org/2000/svg">
<path d="M7.1999 9.53516C7.5299 9.53516 7.8125 9.38816 8.0477 9.09416C8.2825 8.80066 8.3999 8.44766 8.3999 8.03516C8.3999 7.62266 8.2825 7.26941 8.0477 6.97541C7.8125 6.68191 7.5299 6.53516 7.1999 6.53516C6.8699 6.53516 6.5875 6.68191 6.3527 6.97541C6.1175 7.26941 5.9999 7.62266 5.9999 8.03516C5.9999 8.44766 6.1175 8.80066 6.3527 9.09416C6.5875 9.38816 6.8699 9.53516 7.1999 9.53516ZM7.1999 15.0477C8.4199 13.6477 9.3249 12.3757 9.9149 11.2317C10.5049 10.0882 10.7999 9.07266 10.7999 8.18516C10.7999 6.82266 10.4523 5.70691 9.7571 4.83791C9.0623 3.96941 8.2099 3.53516 7.1999 3.53516C6.1899 3.53516 5.3373 3.96941 4.6421 4.83791C3.9473 5.70691 3.5999 6.82266 3.5999 8.18516C3.5999 9.07266 3.8949 10.0882 4.4849 11.2317C5.0749 12.3757 5.9799 13.6477 7.1999 15.0477ZM7.1999 17.0352C5.5899 15.3227 4.3875 13.7319 3.5927 12.2629C2.7975 10.7944 2.3999 9.43516 2.3999 8.18516C2.3999 6.31016 2.8825 4.81641 3.8477 3.70391C4.8125 2.59141 5.9299 2.03516 7.1999 2.03516C8.4699 2.03516 9.5873 2.59141 10.5521 3.70391C11.5173 4.81641 11.9999 6.31016 11.9999 8.18516C11.9999 9.43516 11.6025 10.7944 10.8077 12.2629C10.0125 13.7319 8.8099 15.3227 7.1999 17.0352Z" fill="#CCCCCC"/>
</svg>
