<svg width="24" height="24" viewBox="0 0 24 24" fill="none" xmlns="http://www.w3.org/2000/svg">
<path d="M6.75 16.425V17.4375C6.75 17.6 6.69687 17.7344 6.59062 17.8406C6.48437 17.9469 6.35 18 6.1875 18H5.8125C5.65 18 5.51563 17.9469 5.40938 17.8406C5.30313 17.7344 5.25 17.6 5.25 17.4375V11.3625L6.84375 6.5625C6.90625 6.3875 7.00937 6.25 7.15312 6.15C7.29688 6.05 7.4625 6 7.65 6H16.35C16.5375 6 16.7031 6.05 16.8469 6.15C16.9906 6.25 17.0938 6.3875 17.1562 6.5625L18.75 11.3625V17.4375C18.75 17.6 18.6969 17.7344 18.5906 17.8406C18.4844 17.9469 18.35 18 18.1875 18H17.7938C17.6313 18 17.5 17.9469 17.4 17.8406C17.3 17.7344 17.25 17.6 17.25 17.4375V16.425H6.75ZM6.80625 10.2375H17.1937L16.1625 7.125H7.8375L6.80625 10.2375ZM6.375 11.3625V15.3V11.3625ZM8.3625 14.3625C8.65 14.3625 8.89063 14.2625 9.08438 14.0625C9.27813 13.8625 9.375 13.625 9.375 13.35C9.375 13.0625 9.27813 12.8156 9.08438 12.6094C8.89063 12.4031 8.65 12.3 8.3625 12.3C8.075 12.3 7.82812 12.4031 7.62187 12.6094C7.41562 12.8156 7.3125 13.0625 7.3125 13.35C7.3125 13.6375 7.41562 13.8781 7.62187 14.0719C7.82812 14.2656 8.075 14.3625 8.3625 14.3625ZM15.6562 14.3625C15.9438 14.3625 16.1906 14.2625 16.3969 14.0625C16.6031 13.8625 16.7062 13.625 16.7062 13.35C16.7062 13.0625 16.6031 12.8156 16.3969 12.6094C16.1906 12.4031 15.9438 12.3 15.6562 12.3C15.3687 12.3 15.1281 12.4031 14.9344 12.6094C14.7406 12.8156 14.6437 13.0625 14.6437 13.35C14.6437 13.6375 14.7438 13.8781 14.9438 14.0719C15.1438 14.2656 15.3813 14.3625 15.6562 14.3625ZM6.375 15.3H17.625V11.3625H6.375V15.3Z" fill="#999999"/>
</svg>
