<svg width="72" height="72" viewBox="0 0 72 72" fill="none" xmlns="http://www.w3.org/2000/svg">
<circle cx="36" cy="36" r="35.5" stroke="#CCCCCC"/>
<path d="M27.0668 18.5062L20.6746 19.0655C19.8807 19.1349 19.1494 19.5456 18.6416 20.2071C18.1338 20.8686 17.8911 21.7268 17.9668 22.5929C18.7232 31.2383 22.5968 39.2541 28.7354 44.8771C34.874 50.5 42.7748 53.2695 50.6998 52.5761C51.4937 52.5067 52.225 52.096 52.7328 51.4345C53.2406 50.773 53.4833 49.9148 53.4075 49.0487L52.7974 42.0753L45.2893 37.4742L41.9852 41.7786C41.7199 42.1186 41.3653 42.3619 40.9678 42.4766C40.5703 42.5912 40.1485 42.5719 39.7576 42.4212C37.5654 41.4213 35.5049 40.1006 33.6337 38.496C31.7631 36.8245 30.1718 34.8122 28.9323 32.5511C28.727 32.1535 28.6395 31.6979 28.6819 31.2478C28.7243 30.7976 28.8945 30.3751 29.1689 30.0389L32.5196 25.7827L27.0668 18.5062Z" stroke="#E2E2E2" stroke-width="1.5" stroke-linecap="round" stroke-linejoin="round"/>
</svg>
