<svg width="13" height="13" viewBox="0 0 13 13" fill="none" xmlns="http://www.w3.org/2000/svg">
<g filter="url(#filter0_b_2_429)">
<path fill-rule="evenodd" clip-rule="evenodd" d="M11.5998 2.13177C11.8106 1.7752 11.6924 1.31527 11.3358 1.10449C10.9793 0.893705 10.5193 1.01189 10.3085 1.36846L5.07863 10.2157L2.29751 7.24502C2.01443 6.94264 1.53981 6.927 1.23743 7.21008C0.935047 7.49317 0.919405 7.96778 1.20249 8.27017L4.59839 11.8975C4.86198 12.1791 5.29165 12.212 5.59369 11.9867C5.74198 11.9273 5.87255 11.8203 5.96011 11.6722L11.5998 2.13177Z" fill="#EAFFEC"/>
<path d="M11.5998 2.13177L11.1694 1.87734L11.1694 1.87734L11.5998 2.13177ZM10.3085 1.36846L9.87812 1.11403L9.87812 1.11403L10.3085 1.36846ZM5.07863 10.2157L4.71362 10.5574L5.16956 11.0444L5.50905 10.4701L5.07863 10.2157ZM2.29751 7.24502L2.66252 6.9033L2.29751 7.24502ZM1.23743 7.21008L1.57914 7.57509L1.23743 7.21008ZM1.20249 8.27017L1.5675 7.92845H1.5675L1.20249 8.27017ZM4.59839 11.8975L4.23338 12.2392L4.59839 11.8975ZM5.59369 11.9867L5.4079 11.5225L5.34714 11.5468L5.29469 11.5859L5.59369 11.9867ZM5.96011 11.6722L5.52969 11.4178L5.52969 11.4178L5.96011 11.6722ZM11.0814 1.53491C11.2002 1.60517 11.2396 1.75848 11.1694 1.87734L12.0302 2.38621C12.3815 1.79192 12.1846 1.02537 11.5903 0.674067L11.0814 1.53491ZM10.739 1.6229C10.8092 1.50404 10.9625 1.46465 11.0814 1.53491L11.5903 0.674067C10.996 0.322762 10.2294 0.519739 9.87812 1.11403L10.739 1.6229ZM5.50905 10.4701L10.739 1.6229L9.87812 1.11403L4.64821 9.96125L5.50905 10.4701ZM1.93251 7.58673L4.71362 10.5574L5.44364 9.87397L2.66252 6.9033L1.93251 7.58673ZM1.57914 7.57509C1.67994 7.48073 1.83814 7.48594 1.93251 7.58673L2.66252 6.9033C2.19071 6.39933 1.39968 6.37326 0.895712 6.84508L1.57914 7.57509ZM1.5675 7.92845C1.47314 7.82766 1.47835 7.66945 1.57914 7.57509L0.895712 6.84508C0.391743 7.31689 0.365674 8.10791 0.837485 8.61188L1.5675 7.92845ZM4.96339 11.5558L1.5675 7.92845L0.837485 8.61188L4.23338 12.2392L4.96339 11.5558ZM5.29469 11.5859C5.19444 11.6607 5.05103 11.6494 4.96339 11.5558L4.23338 12.2392C4.67294 12.7088 5.38885 12.7633 5.89268 12.3874L5.29469 11.5859ZM5.52969 11.4178C5.50023 11.4676 5.45733 11.5027 5.4079 11.5225L5.77948 12.4509C6.02663 12.352 6.24487 12.1731 6.39054 11.9266L5.52969 11.4178ZM11.1694 1.87734L5.52969 11.4178L6.39053 11.9266L12.0302 2.38621L11.1694 1.87734Z" fill="#AAFFC2"/>
</g>
<defs>
<filter id="filter0_b_2_429" x="-3.5" y="-3.50006" width="19.7046" height="20.135" filterUnits="userSpaceOnUse" color-interpolation-filters="sRGB">
<feFlood flood-opacity="0" result="BackgroundImageFix"/>
<feGaussianBlur in="BackgroundImageFix" stdDeviation="2"/>
<feComposite in2="SourceAlpha" operator="in" result="effect1_backgroundBlur_2_429"/>
<feBlend mode="normal" in="SourceGraphic" in2="effect1_backgroundBlur_2_429" result="shape"/>
</filter>
</defs>
</svg>
