<svg width="22" height="22" viewBox="0 0 22 22" fill="none" xmlns="http://www.w3.org/2000/svg">
<path d="M3.875 5.13794L5.015 18.4759C5.07293 19.1661 5.38428 19.809 5.88717 20.2766C6.39005 20.7443 7.04766 21.0025 7.72929 21H14.2979C14.9795 21.0025 15.6371 20.7443 16.14 20.2766C16.6429 19.809 16.9542 19.1661 17.0121 18.4759L18.1521 5.13794" stroke="black" stroke-width="1.5" stroke-linecap="round" stroke-linejoin="round"/>
<path d="M7.94611 4.7931V3.75862C7.94611 3.02699 8.23208 2.32532 8.7411 1.80798C9.25013 1.29064 9.94052 1 10.6604 1H11.339C12.0588 1 12.7492 1.29064 13.2583 1.80798C13.7673 2.32532 14.0532 3.02699 14.0532 3.75862V4.7931" stroke="black" stroke-width="1.5" stroke-linecap="round" stroke-linejoin="round"/>
<path d="M1.5 5.13794H20.5" stroke="black" stroke-width="1.5" stroke-linecap="round" stroke-linejoin="round"/>
</svg>
