<?xml version="1.0" standalone="no"?>
<!DOCTYPE svg PUBLIC "-//W3C//DTD SVG 20010904//EN"
 "http://www.w3.org/TR/2001/REC-SVG-20010904/DTD/svg10.dtd">
<svg version="1.0" xmlns="http://www.w3.org/2000/svg"
 width="512.000000pt" height="512.000000pt" viewBox="0 0 512.000000 512.000000"
 preserveAspectRatio="xMidYMid meet">
<metadata>
Created by potrace 1.16, written by Peter Selinger 2001-2019
</metadata>
<g transform="translate(0.000000,512.000000) scale(0.100000,-0.100000)"
fill="#000000" stroke="none">
<path d="M2007 4940 c-440 -95 -777 -434 -867 -871 -28 -136 -24 -377 8 -505
101 -395 414 -709 812 -814 129 -34 369 -39 507 -11 440 91 784 433 873 869
27 133 27 331 1 457 -90 427 -399 753 -821 865 -123 33 -387 38 -513 10z"/>
<path d="M4072 3500 c-18 -11 -41 -34 -52 -52 -19 -31 -20 -51 -20 -300 l0
-268 -267 0 c-250 0 -270 -1 -301 -20 -48 -30 -72 -75 -72 -140 0 -65 24 -110
72 -140 31 -19 51 -20 301 -20 l267 0 0 -267 c0 -250 1 -270 20 -301 30 -48
75 -72 140 -72 65 0 110 24 140 72 19 31 20 51 20 301 l0 267 268 0 c249 0
269 1 300 20 48 30 72 75 72 140 0 65 -24 110 -72 140 -31 19 -51 20 -300 20
l-268 0 0 268 c0 249 -1 269 -20 300 -30 48 -75 72 -140 72 -37 0 -66 -6 -88
-20z"/>
<path d="M1980 2389 c-374 -48 -774 -218 -1050 -447 -84 -70 -225 -209 -295
-292 -294 -351 -475 -836 -475 -1275 0 -124 13 -159 72 -195 33 -20 55 -20
2008 -20 1953 0 1975 0 2008 20 59 36 72 71 72 195 0 365 -129 778 -344 1099
-341 508 -880 840 -1486 915 -97 13 -414 12 -510 0z"/>
</g>
</svg>
