<svg width="16" height="16" viewBox="0 0 16 16" fill="none" xmlns="http://www.w3.org/2000/svg">
<path fill-rule="evenodd" clip-rule="evenodd" d="M8.75 0.78125C8.75 0.367036 8.41421 0.03125 8 0.03125C7.58579 0.03125 7.25 0.367036 7.25 0.78125V7.33626H0.875C0.460786 7.33626 0.125 7.67205 0.125 8.08626C0.125 8.50048 0.460786 8.83626 0.875 8.83626H7.25V15.2188C7.25 15.633 7.58579 15.9688 8 15.9688C8.41421 15.9688 8.75 15.633 8.75 15.2188V8.83626H15.125C15.5392 8.83626 15.875 8.50048 15.875 8.08626C15.875 7.67205 15.5392 7.33626 15.125 7.33626H8.75V0.78125Z" fill="#333333"/>
</svg>
