<?xml version="1.0" standalone="no"?>
<!DOCTYPE svg PUBLIC "-//W3C//DTD SVG 20010904//EN"
 "http://www.w3.org/TR/2001/REC-SVG-20010904/DTD/svg10.dtd">
<svg version="1.0" xmlns="http://www.w3.org/2000/svg"
 width="512.000000pt" height="512.000000pt" viewBox="0 0 512.000000 512.000000"
 preserveAspectRatio="xMidYMid meet">
<metadata>
Created by potrace 1.16, written by Peter Selinger 2001-2019
</metadata>
<g transform="translate(0.000000,512.000000) scale(0.100000,-0.100000)"
fill="#000000" stroke="none">
<path d="M2010 4940 c-424 -91 -749 -401 -860 -820 -33 -126 -39 -370 -12
-500 91 -436 395 -755 829 -871 119 -32 365 -38 493 -11 453 95 787 427 881
877 40 192 21 431 -51 628 -128 351 -444 618 -825 698 -121 25 -336 25 -455
-1z m455 -340 c222 -69 396 -221 493 -430 52 -111 72 -204 72 -333 0 -301
-167 -570 -435 -703 -122 -60 -222 -84 -352 -84 -129 0 -222 20 -333 72 -169
78 -294 199 -376 363 -60 122 -84 222 -84 352 0 136 21 225 80 348 84 172 193
281 365 365 185 90 383 107 570 50z"/>
<path d="M4072 3500 c-18 -11 -41 -34 -52 -52 -19 -31 -20 -51 -20 -300 l0
-268 -267 0 c-250 0 -270 -1 -301 -20 -48 -30 -72 -75 -72 -140 0 -65 24 -110
72 -140 31 -19 51 -20 301 -20 l267 0 0 -267 c0 -250 1 -270 20 -301 30 -48
75 -72 140 -72 65 0 110 24 140 72 19 31 20 51 20 301 l0 267 268 0 c249 0
269 1 300 20 48 30 72 75 72 140 0 65 -24 110 -72 140 -31 19 -51 20 -300 20
l-268 0 0 268 c0 249 -1 269 -20 300 -30 48 -75 72 -140 72 -37 0 -66 -6 -88
-20z"/>
<path d="M1980 2389 c-374 -48 -774 -218 -1050 -447 -84 -70 -225 -209 -295
-292 -294 -351 -475 -836 -475 -1275 0 -124 13 -159 72 -195 33 -20 55 -20
2008 -20 1953 0 1975 0 2008 20 59 36 72 71 72 195 0 365 -129 778 -344 1099
-341 508 -880 840 -1486 915 -97 13 -414 12 -510 0z m386 -319 c314 -26 590
-121 849 -295 422 -282 708 -748 768 -1252 l5 -43 -1748 0 -1748 0 5 43 c62
526 372 1011 823 1290 266 164 527 241 896 266 12 0 79 -4 150 -9z"/>
</g>
</svg>
