<svg width="28" height="28" viewBox="0 0 28 28" fill="none" xmlns="http://www.w3.org/2000/svg">
<path d="M13.5671 13.0948C15.7631 13.0948 17.5434 11.3387 17.5434 9.17241C17.5434 7.00612 15.7631 5.25 13.5671 5.25C11.3711 5.25 9.59082 7.00612 9.59082 9.17241C9.59082 11.3387 11.3711 13.0948 13.5671 13.0948Z" fill="#333333" stroke="black" stroke-width="1.5" stroke-linecap="round" stroke-linejoin="round"/>
<path d="M7.26639 22.7504H19.8681C21.2629 22.7504 22.315 21.5435 21.6911 20.3366C20.7368 18.5504 18.5468 16.4142 13.5672 16.4142C8.58773 16.4142 6.39772 18.5504 5.44342 20.3487C4.79498 21.5677 5.87163 22.7504 7.26639 22.7504Z" fill="#333333" stroke="black" stroke-width="1.5" stroke-linecap="round" stroke-linejoin="round"/>
<path fill-rule="evenodd" clip-rule="evenodd" d="M25.1875 7.15625C25.1875 6.74204 24.8517 6.40625 24.4375 6.40625C24.0233 6.40625 23.6875 6.74204 23.6875 7.15625V8.78141H22.125C21.7108 8.78141 21.375 9.1172 21.375 9.53141C21.375 9.94563 21.7108 10.2814 22.125 10.2814H23.6875V11.9688C23.6875 12.383 24.0233 12.7188 24.4375 12.7188C24.8517 12.7188 25.1875 12.383 25.1875 11.9688V10.2814H26.75C27.1642 10.2814 27.5 9.94563 27.5 9.53141C27.5 9.1172 27.1642 8.78141 26.75 8.78141H25.1875V7.15625Z" fill="#333333"/>
</svg>
