<svg width="24" height="20" viewBox="0 0 24 20" fill="none" xmlns="http://www.w3.org/2000/svg">
<path d="M9.56709 9.09483C11.7631 9.09483 13.5434 7.3387 13.5434 5.17241C13.5434 3.00612 11.7631 1.25 9.56709 1.25C7.37106 1.25 5.59082 3.00612 5.59082 5.17241C5.59082 7.3387 7.37106 9.09483 9.56709 9.09483Z" stroke="#333333" stroke-width="1.5" stroke-linecap="round" stroke-linejoin="round"/>
<path d="M3.26639 18.7504H15.8681C17.2629 18.7504 18.315 17.5435 17.6911 16.3366C16.7368 14.5504 14.5468 12.4142 9.56724 12.4142C4.58773 12.4142 2.39772 14.5504 1.44342 16.3487C0.794982 17.5677 1.87163 18.7504 3.26639 18.7504Z" stroke="#333333" stroke-width="1.5" stroke-linecap="round" stroke-linejoin="round"/>
<path fill-rule="evenodd" clip-rule="evenodd" d="M21.1875 3.15625C21.1875 2.74204 20.8517 2.40625 20.4375 2.40625C20.0233 2.40625 19.6875 2.74204 19.6875 3.15625V4.78141H18.125C17.7108 4.78141 17.375 5.1172 17.375 5.53141C17.375 5.94563 17.7108 6.28141 18.125 6.28141H19.6875V7.96875C19.6875 8.38296 20.0233 8.71875 20.4375 8.71875C20.8517 8.71875 21.1875 8.38296 21.1875 7.96875V6.28141H22.75C23.1642 6.28141 23.5 5.94563 23.5 5.53141C23.5 5.1172 23.1642 4.78141 22.75 4.78141H21.1875V3.15625Z" fill="#333333"/>
</svg>
